<?xml version="1.0" encoding="UTF-8"?>
<svg version="1.1" xmlns="http://www.w3.org/2000/svg" width="512" height="512">
<path d="M0 0 C3.90362684 0.02143779 7.80541349 0.00012291 11.70898438 -0.02539062 C36.17451309 -0.05476886 36.17451309 -0.05476886 47.91210938 4.52148438 C49.13945801 4.99932373 49.13945801 4.99932373 50.39160156 5.48681641 C52.41527997 6.35378174 54.34493044 7.29905705 56.28710938 8.33398438 C56.95137939 8.67655273 57.61564941 9.01912109 58.30004883 9.37207031 C63.64462759 12.20527806 68.33948971 15.56169003 72.91210938 19.52148438 C74.10126953 20.41673828 74.10126953 20.41673828 75.31445312 21.33007812 C89.0811974 32.94382781 98.19677181 51.83053314 100.14040661 69.60982013 C100.47886471 74.86353717 100.41494573 80.11901676 100.36621094 85.38061523 C100.36507961 87.11679559 100.36572187 88.85297785 100.36798096 90.5891571 C100.36911792 95.25358169 100.34577555 99.91758591 100.31768513 104.58191371 C100.29249979 109.4745545 100.29031608 114.36720734 100.2855835 119.25990295 C100.27320367 128.50306275 100.24045038 137.7460309 100.20018554 146.98910671 C100.15531146 157.52127056 100.13344164 168.05344408 100.1134038 178.58567989 C100.07171276 200.23105457 100.0014589 221.87625735 99.91210938 243.52148438 C100.69150879 243.66175049 101.4709082 243.8020166 102.27392578 243.9465332 C106.82817212 244.93906051 110.19911674 247.80715872 113.91210938 250.52148438 C114.53601563 250.96492187 115.15992188 251.40835938 115.80273438 251.86523438 C124.68978504 258.75069705 129.12082913 268.89823254 131.91210938 279.52148438 C132.42210654 283.54796401 132.46111843 287.50554682 132.4296875 291.56054688 C132.44020142 293.26528923 132.44020142 293.26528923 132.45092773 295.00447083 C132.46837361 298.71873203 132.45693854 302.43221699 132.44335938 306.14648438 C132.44605663 308.7429214 132.44994099 311.33935743 132.45495605 313.93579102 C132.46083165 319.35557705 132.45273155 324.77507562 132.43359375 330.19482422 C132.41174346 336.45494255 132.41894918 342.71454134 132.44089937 348.97464752 C132.46123672 355.01781898 132.45909029 361.06073644 132.44737244 367.10394287 C132.44470282 369.66843743 132.4479831 372.23294526 132.45729065 374.79742432 C132.46742362 378.37117024 132.4520032 381.94390758 132.4296875 385.51757812 C132.43778442 386.57838089 132.44588135 387.63918365 132.45422363 388.73213196 C132.43730469 390.1910511 132.43730469 390.1910511 132.42004395 391.67944336 C132.41778179 392.94473122 132.41778179 392.94473122 132.41547394 394.23558044 C131.70037041 397.48304377 130.55519563 398.5045775 127.91210938 400.52148438 C125.08112016 400.91346062 122.63976222 401.05920985 119.80981445 401.02484894 C118.9824711 401.0306627 118.15512775 401.03647646 117.30271339 401.0424664 C114.51206422 401.05714101 111.72228435 401.04314659 108.93164062 401.02941895 C106.918132 401.03402491 104.90462673 401.04037577 102.89112854 401.04832792 C97.3438295 401.06508614 91.79680435 401.05674541 86.24950409 401.04438305 C80.27259936 401.03536139 74.29574291 401.04928792 68.31884766 401.06030273 C57.28210869 401.07709254 46.24544541 401.07559372 35.2087059 401.06465686 C25.01363958 401.05460339 14.81860542 401.05196374 4.62353516 401.05674744 C3.94785339 401.05705298 3.27217161 401.05735852 2.57601464 401.05767332 C-0.16664544 401.05891863 -2.90930551 401.06019222 -5.65196556 401.06151237 C-31.39185087 401.07375447 -57.1316803 401.06264488 -82.871557 401.04112478 C-105.75098981 401.02214167 -128.63033359 401.02384016 -151.50976562 401.04296875 C-177.20190294 401.06437702 -202.89399087 401.07288634 -228.58613586 401.0605197 C-231.3238627 401.05923678 -234.06158955 401.05798542 -236.79931641 401.05674744 C-237.47343815 401.05643113 -238.14755989 401.05611482 -238.84210956 401.05578892 C-249.03196027 401.05123478 -259.22177532 401.05656802 -269.41162109 401.06666565 C-280.99537746 401.07808718 -292.57904906 401.07489035 -304.16279602 401.05354267 C-310.07715833 401.04300366 -315.99133956 401.03895891 -321.90570068 401.05213928 C-327.314047 401.06401002 -332.72204342 401.05758879 -338.13035774 401.03622907 C-340.09260777 401.03174036 -342.05488703 401.03407968 -344.01711845 401.04373223 C-346.67370459 401.05580354 -349.32907434 401.04351638 -351.9855957 401.02484894 C-353.1424994 401.03889593 -353.1424994 401.03889593 -354.32277489 401.05322671 C-357.8173319 401.0037622 -359.73709814 400.78659446 -362.56253815 398.65127897 C-364.50840518 395.93433508 -364.59459841 394.31683276 -364.60546875 390.99023438 C-364.61807739 389.88228516 -364.63068604 388.77433594 -364.64367676 387.6328125 C-364.63557983 386.44107422 -364.62748291 385.24933594 -364.61914062 384.02148438 C-364.62296753 382.79365234 -364.62679443 381.56582031 -364.6307373 380.30078125 C-364.63345904 377.70506978 -364.62607974 375.10933101 -364.609375 372.51367188 C-364.58797137 368.53648838 -364.60917025 364.56111156 -364.63476562 360.58398438 C-364.6321224 358.06314705 -364.62699753 355.54231084 -364.61914062 353.02148438 C-364.63128601 351.23387695 -364.63128601 351.23387695 -364.64367676 349.41015625 C-364.62476379 347.74823242 -364.62476379 347.74823242 -364.60546875 346.05273438 C-364.60228638 345.07884766 -364.599104 344.10496094 -364.5958252 343.1015625 C-363.9414969 339.7778704 -362.72897606 338.58210655 -360.08789062 336.52148438 C-357.06347656 336.06738281 -357.06347656 336.06738281 -353.57226562 336.13085938 C-352.321875 336.14375 -351.07148438 336.15664063 -349.78320312 336.16992188 C-347.83027344 336.22019531 -347.83027344 336.22019531 -345.83789062 336.27148438 C-344.52046875 336.28953125 -343.20304687 336.30757813 -341.84570312 336.32617188 C-338.59236755 336.37332167 -335.34049438 336.43912394 -332.08789062 336.52148438 C-332.10883789 335.20954102 -332.12978516 333.89759766 -332.15136719 332.54589844 C-332.22377033 327.67817094 -332.26969176 322.81049103 -332.30761719 317.94238281 C-332.32773188 315.83553056 -332.3550273 313.72873412 -332.38964844 311.62207031 C-332.43817231 308.59360991 -332.46086079 305.56588759 -332.47851562 302.53710938 C-332.49916077 301.59530823 -332.51980591 300.65350708 -332.54107666 299.6831665 C-332.54137878 298.80255554 -332.54168091 297.92194458 -332.54199219 297.01464844 C-332.55087463 296.24187561 -332.55975708 295.46910278 -332.56890869 294.6729126 C-331.87370626 291.56351142 -330.62169351 290.41035764 -328.08789062 288.52148438 C-325.32904053 288.04046631 -325.32904053 288.04046631 -322.12597656 288.06738281 C-320.92503357 288.06768494 -319.72409058 288.06798706 -318.48675537 288.06829834 C-317.19497375 288.08894348 -315.90319214 288.10958862 -314.57226562 288.13085938 C-313.23277634 288.13832367 -311.8932761 288.14401571 -310.55377197 288.14801025 C-307.03537626 288.16325225 -303.51764547 288.2025202 -299.99951172 288.24682617 C-296.40666867 288.28781072 -292.81371453 288.30624741 -289.22070312 288.32617188 C-282.17584586 288.36689359 -275.13281229 288.44518558 -268.08789062 288.52148438 C-268.08789062 277.96148437 -268.08789062 267.40148437 -268.08789062 256.52148438 C-270.43914062 256.54243164 -272.79039062 256.56337891 -275.21289062 256.58496094 C-282.99997195 256.65137643 -290.7870661 256.69547775 -298.57435608 256.72873306 C-303.29370157 256.74956693 -308.01275574 256.77780742 -312.73193359 256.82324219 C-317.29014939 256.86685033 -321.84808576 256.89065306 -326.40649414 256.90099335 C-328.14156489 256.90835794 -329.87662115 256.92273921 -331.61157227 256.9444046 C-334.05062354 256.97363849 -336.48853481 256.97743219 -338.92773438 256.97558594 C-339.63768051 256.98996704 -340.34762665 257.00434814 -341.0790863 257.01916504 C-347.49491377 256.96695603 -352.55901236 254.73755714 -357.33007812 250.55664062 C-358.13832031 249.58017578 -358.13832031 249.58017578 -358.96289062 248.58398438 C-359.5171875 247.93558594 -360.07148438 247.2871875 -360.64257812 246.61914062 C-363.56433243 242.37864857 -364.33873485 238.6894145 -364.35531616 233.58317566 C-364.36384613 232.39305374 -364.3723761 231.20293182 -364.38116455 229.97674561 C-364.38025818 228.67948547 -364.37935181 227.38222534 -364.37841797 226.0456543 C-364.3844056 224.65889627 -364.39121169 223.27214157 -364.39877319 221.88539124 C-364.41641774 218.12492163 -364.42112795 214.36454309 -364.42240477 210.60403609 C-364.42382793 208.25226826 -364.42810069 205.90052347 -364.4333992 203.54876137 C-364.45189519 195.33742431 -364.46007046 187.12615212 -364.45849609 178.91479492 C-364.45729518 171.27179078 -364.47838857 163.62906926 -364.50998342 155.98613662 C-364.5361744 149.41525105 -364.54686219 142.84445763 -364.54558527 136.27352029 C-364.54507642 132.35301893 -364.55071696 128.43276874 -364.57194138 124.51231956 C-364.5913713 120.82268374 -364.59141629 117.13353745 -364.57690811 113.4438839 C-364.57383545 111.4535013 -364.59046363 109.46311841 -364.60778809 107.47280884 C-364.55022279 99.24812464 -363.69671597 93.63970654 -358.12304688 87.27929688 C-357.47207031 86.74046875 -356.82109375 86.20164062 -356.15039062 85.64648438 C-355.50199219 85.0921875 -354.85359375 84.53789062 -354.18554688 83.96679688 C-348.94378499 80.35515461 -344.27137563 80.2314515 -338.11247253 80.25405884 C-336.7547082 80.24726217 -336.7547082 80.24726217 -335.36951429 80.24032819 C-332.33572784 80.22766568 -329.3021205 80.22930577 -326.26831055 80.23095703 C-324.09338652 80.22497293 -321.91846463 80.21816766 -319.74354553 80.21060181 C-313.83439066 80.19292231 -307.92529371 80.18824559 -302.01611495 80.18697023 C-297.08323533 80.18507144 -292.15036921 80.17771411 -287.21749479 80.17062604 C-275.57882746 80.15433697 -263.94019108 80.14945756 -252.30151367 80.15087891 C-240.29601909 80.1520804 -228.2907293 80.13097807 -216.28527755 80.09939158 C-205.97769741 80.07323869 -195.67017602 80.0625112 -185.36256295 80.06378973 C-179.20644426 80.06429966 -173.05048529 80.058599 -166.89439964 80.03743362 C-161.10363453 80.01806813 -155.31318176 80.01791547 -149.52240562 80.03246689 C-147.39879399 80.03455818 -145.27516288 80.02983508 -143.15158463 80.01774597 C-140.24877635 80.0022931 -137.34704499 80.01160226 -134.44425964 80.02700806 C-133.60718245 80.01672093 -132.77010526 80.0064338 -131.90766209 79.99583495 C-125.14977004 80.07489828 -119.95321993 82.01057734 -114.84570312 86.48632812 C-114.306875 87.13730469 -113.76804687 87.78828125 -113.21289062 88.45898438 C-112.38144531 89.43158203 -112.38144531 89.43158203 -111.53320312 90.42382812 C-108.61144882 94.66432018 -107.8370464 98.35355425 -107.82046509 103.45979309 C-107.80767014 105.24497597 -107.80767014 105.24497597 -107.7946167 107.06622314 C-107.79552307 108.36348328 -107.79642944 109.66074341 -107.79736328 110.99731445 C-107.79137565 112.38407248 -107.78456956 113.77082718 -107.77700806 115.15757751 C-107.75936351 118.91804712 -107.7546533 122.67842566 -107.75337648 126.43893266 C-107.75195332 128.79070049 -107.74768056 131.14244528 -107.74238205 133.49420738 C-107.72388606 141.70554444 -107.71571079 149.91681663 -107.71728516 158.12817383 C-107.71848607 165.77117797 -107.69739268 173.41389949 -107.66579783 181.05683213 C-107.63960685 187.6277177 -107.62891906 194.19851112 -107.63019598 200.76944846 C-107.63070483 204.68994982 -107.62506429 208.61020001 -107.60383987 212.53064919 C-107.58440995 216.22028501 -107.58436496 219.9094313 -107.59887314 223.59908485 C-107.6019458 225.58946745 -107.58531762 227.57985034 -107.56799316 229.57015991 C-107.62555846 237.79484411 -108.47906528 243.40326221 -114.05273438 249.76367188 C-114.70371094 250.3025 -115.3546875 250.84132813 -116.02539062 251.39648438 C-116.67378906 251.95078125 -117.3221875 252.50507813 -117.99023438 253.07617188 C-122.80089641 256.39078073 -127.18820664 256.80559474 -132.9074707 256.74853516 C-133.67873291 256.74882721 -134.44999512 256.74911926 -135.24462891 256.74942017 C-137.78234282 256.74803189 -140.31975954 256.73249452 -142.85742188 256.71679688 C-144.62147359 256.71306496 -146.38552738 256.71021883 -148.14958191 256.70822144 C-152.78398398 256.70059907 -157.41825993 256.68096259 -162.0526123 256.65881348 C-166.78505752 256.63832494 -171.51752318 256.62921329 -176.25 256.61914062 C-185.52936109 256.59771535 -194.80859562 256.5625446 -204.08789062 256.52148438 C-204.08789062 267.08148438 -204.08789062 277.64148438 -204.08789062 288.52148438 C-197.660625 288.451875 -197.660625 288.451875 -191.10351562 288.38085938 C-187.68478869 288.35513156 -184.26608914 288.33344188 -180.84732056 288.31448364 C-177.23948714 288.29336921 -173.63203017 288.26515944 -170.02441406 288.21972656 C-166.54901149 288.17623313 -163.07397375 288.15234016 -159.59832001 288.1419754 C-157.62843279 288.13099823 -155.65869215 288.09977738 -153.68902588 288.06829834 C-151.88761139 288.06784515 -151.88761139 288.06784515 -150.04980469 288.06738281 C-148.99279358 288.05850037 -147.93578247 288.04961792 -146.84674072 288.04046631 C-143.34344918 288.65128113 -142.17761097 289.67870055 -140.08789062 292.52148438 C-139.60687256 294.6729126 -139.60687256 294.6729126 -139.63378906 297.01464844 C-139.63409119 297.8952594 -139.63439331 298.77587036 -139.63470459 299.6831665 C-139.65534973 300.62496765 -139.67599487 301.5667688 -139.69726562 302.53710938 C-139.70292542 303.50807556 -139.70858521 304.47904175 -139.7144165 305.47943115 C-139.73678751 308.57728607 -139.7869859 311.67397971 -139.83789062 314.77148438 C-139.85795466 316.87303016 -139.8762056 318.97459409 -139.89257812 321.07617188 C-139.93665482 326.22505607 -140.00568804 331.37307341 -140.08789062 336.52148438 C-134.80789062 336.52148438 -129.52789062 336.52148438 -124.08789062 336.52148438 C-124.10883789 334.85762695 -124.12978516 333.19376953 -124.15136719 331.47949219 C-124.21629151 325.93560294 -124.26201979 320.39176884 -124.29513931 314.84759903 C-124.31587174 311.4913604 -124.34613248 308.13585099 -124.38964844 304.77978516 C-124.43857846 300.90711779 -124.46095433 297.03503122 -124.47851562 293.16210938 C-124.49916077 291.97723938 -124.51980591 290.79236938 -124.54107666 289.57159424 C-124.54464557 276.10182139 -120.21402716 264.15570011 -110.95117188 254.23242188 C-105.90194041 249.52685538 -99.30166064 243.52148438 -92.08789062 243.52148438 C-92.0915778 242.62825438 -92.09526497 241.73502439 -92.09906387 240.81472683 C-92.18760039 219.02852679 -92.25369024 197.24235799 -92.29513931 175.45601559 C-92.31571921 164.92007401 -92.34375192 154.3842529 -92.38964844 143.84838867 C-92.42965669 134.65979555 -92.45535663 125.47128972 -92.4642446 116.28261191 C-92.46943576 111.42227047 -92.48154044 106.56217867 -92.51081085 101.70191765 C-92.53820156 97.11610444 -92.54628844 92.53064089 -92.54032135 87.94475365 C-92.54141111 86.27236269 -92.54922291 84.59995858 -92.56471252 82.92763901 C-92.68589918 69.15440346 -90.860589 56.50448606 -84.27539062 44.14648438 C-83.93282227 43.48221436 -83.59025391 42.81794434 -83.23730469 42.13354492 C-80.40409694 36.78896616 -77.04768497 32.09410404 -73.08789062 27.52148438 C-72.49105469 26.72871094 -71.89421875 25.9359375 -71.27929688 25.11914062 C-63.2245579 15.57118801 -51.7915218 8.61936667 -40.08789062 4.52148438 C-39.1660498 4.17134277 -38.24420898 3.82120117 -37.29443359 3.46044922 C-25.12423541 -0.51273659 -12.68650313 -0.08291832 0 0 Z " fill="#000000" transform="translate(372.087890625,103.478515625)"/>
<path d="M0 0 C1.21619577 0.01877677 1.21619577 0.01877677 2.45696115 0.03793287 C3.3275021 0.03154405 4.19804305 0.02515523 5.09496403 0.01857281 C8.01179255 0.00331314 10.9272649 0.02379051 13.84404612 0.04415846 C15.9351711 0.04065756 18.02629342 0.03499934 20.11740732 0.02734327 C25.79719439 0.01308129 31.47649815 0.03017098 37.15623903 0.05362844 C43.09697282 0.07371667 49.03768614 0.06785894 54.97844553 0.06552076 C64.95537407 0.06557436 74.93211337 0.08534445 84.90898752 0.11740065 C96.44759821 0.1542943 107.98596094 0.1630764 119.52462292 0.15610313 C130.61930586 0.14980033 141.71390367 0.16054834 152.80856943 0.18006849 C157.53255027 0.18824839 162.25648762 0.19095095 166.98047495 0.18937635 C172.54223325 0.18849813 178.10375549 0.20269706 183.66545153 0.22860289 C185.70806659 0.23577189 187.75070675 0.23784479 189.79333162 0.23448515 C192.57884475 0.2307772 195.36366638 0.2454942 198.14909983 0.26498365 C198.95989701 0.25965573 199.77069419 0.2543278 200.60606098 0.24883842 C205.16860537 0.30401923 208.18671704 0.79666965 211.80303049 3.65939283 C228.05247493 36.1582817 212.80303049 76.32453048 212.80303049 112.65939283 C138.88303049 112.65939283 64.96303049 112.65939283 -11.19696951 112.65939283 C-11.19696951 0.17651955 -11.19696951 0.17651955 0 0 Z " fill="#5DD2F1" transform="translate(35.196969509124756,199.34060716629028)"/>
<path d="M0 0 C1.27922927 1.07340623 2.55013137 2.15681479 3.8125 3.25 C4.60527344 3.84683594 5.39804688 4.44367187 6.21484375 5.05859375 C15.93504199 13.25864069 22.35794315 24.51012742 26.8125 36.25 C27.245625 37.36117187 27.67875 38.47234375 28.125 39.6171875 C34.65578831 59.61772671 32.0564283 81.98347413 23 100.625 C18.77632191 108.8801468 13.62131356 115.91621995 6.8125 122.25 C5.82056641 123.24966797 5.82056641 123.24966797 4.80859375 124.26953125 C-12.07577368 140.59757686 -32.85098127 144.79710753 -55.640625 144.51953125 C-72.93778857 144.02048006 -89.18371204 136.51101226 -102.1875 125.25 C-103.37666016 124.35474609 -103.37666016 124.35474609 -104.58984375 123.44140625 C-114.31004199 115.24135931 -120.73294315 103.98987258 -125.1875 92.25 C-125.620625 91.13882813 -126.05375 90.02765625 -126.5 88.8828125 C-133.03099719 68.8816336 -130.43072972 46.5172456 -121.375 27.875 C-118.26497734 21.78995216 -114.68877268 16.40876195 -110.1875 11.25 C-109.02927734 9.79787109 -109.02927734 9.79787109 -107.84765625 8.31640625 C-99.83367411 -1.28413081 -88.67753866 -7.32843272 -77.1875 -11.75 C-76.07503906 -12.18441406 -74.96257812 -12.61882813 -73.81640625 -13.06640625 C-49.10163881 -21.1176415 -20.46360477 -15.78039174 0 0 Z " fill="#F4B73F" transform="translate(185.1875,23.75)"/>
<path d="M0 0 C1.18851562 0.53496094 2.37703125 1.06992188 3.6015625 1.62109375 C4.25133057 1.9154834 4.90109863 2.20987305 5.57055664 2.51318359 C19.36581767 8.71982153 31.87124243 11.04002035 46.9375 11.5625 C48.09830078 11.60568359 49.25910156 11.64886719 50.45507812 11.69335938 C53.30328232 11.79884842 56.15156529 11.90096555 59 12 C59.10957031 12.91523438 59.21914063 13.83046875 59.33203125 14.7734375 C59.49058594 15.96195313 59.64914062 17.15046875 59.8125 18.375 C59.96332031 19.55835938 60.11414063 20.74171875 60.26953125 21.9609375 C60.70699334 25.29532084 60.70699334 25.29532084 64 27 C67.26019442 27.3397828 70.4982404 27.44189132 73.7734375 27.55859375 C77.26114553 28.03572572 79.18857777 28.91954755 82 31 C83.40457737 33.80915474 83.24895157 35.88810534 83 39 C81.22015595 42.1359157 80.47691793 42.84102736 77 44 C73.7102548 44.19300982 70.42248041 44.31711953 67.12890625 44.42578125 C63.98735128 44.79650023 63.98735128 44.79650023 61.65234375 46.515625 C59.33876328 49.9941999 59.24543547 53.38317598 59 57.4375 C57.05548444 79.38023877 47.3075298 98.44881236 30.625 112.875 C20.19535374 121.0347517 10.20998573 125.13548303 -3 124 C-19.63595735 120.09746309 -33.06773348 107.08047375 -42 93 C-49.51642531 79.9073776 -53.13067544 67.02117765 -53.69140625 51.8984375 C-53.79414522 48.80666471 -53.79414522 48.80666471 -56 46 C-59.28467944 44.90510685 -61.92145594 44.86063986 -65.375 44.75 C-69.72135301 44.43504688 -71.61890878 44.25166402 -75.3125 41.8125 C-77.34799275 38.42001209 -77.80870757 36.88179633 -77 33 C-75.3125 30.1875 -75.3125 30.1875 -72 28 C-68.66543848 27.50192625 -65.42859852 27.31230448 -62.05859375 27.23828125 C-58.17862726 26.97943513 -58.17862726 26.97943513 -55 25 C-54.07500217 21.9017122 -54.07500217 21.9017122 -53.75 18.375 C-53.60046875 17.18648437 -53.4509375 15.99796875 -53.296875 14.7734375 C-53.19890625 13.85820312 -53.1009375 12.94296875 -53 12 C-51.741875 11.76925781 -50.48375 11.53851563 -49.1875 11.30078125 C-34.67049626 8.56530107 -20.91083465 5.20426632 -7.55078125 -1.27734375 C-4.1970203 -2.22749042 -3.08415124 -1.5671315 0 0 Z " fill="#F9DFC9" transform="translate(373,188)"/>
<path d="M0 0 C1.09593979 -0.0099852 2.19187958 -0.0199704 3.32102966 -0.03025818 C5.62780013 -0.04535279 7.93463527 -0.05248668 10.24145508 -0.05200195 C13.71354225 -0.05853252 17.18271765 -0.11302689 20.65429688 -0.16992188 C42.0854786 -0.33123226 59.78942399 4.02116395 75.796875 19.0234375 C82.74901955 26.24866138 87.50535392 34.21859351 91.18359375 43.50390625 C91.80234375 45.05078125 91.80234375 45.05078125 92.43359375 46.62890625 C94.48020096 54.47423391 94.31209336 62.51953131 94.24609375 70.56640625 C94.24158203 71.62279297 94.23707031 72.67917969 94.23242188 73.76757812 C94.22075293 76.34641533 94.2043826 78.92512919 94.18359375 81.50390625 C91.54359375 81.17390625 88.90359375 80.84390625 86.18359375 80.50390625 C86.13460937 79.74464844 86.085625 78.98539062 86.03515625 78.203125 C85.92300781 76.71232422 85.92300781 76.71232422 85.80859375 75.19140625 C85.70417969 73.71220703 85.70417969 73.71220703 85.59765625 72.203125 C85.34493903 69.28862192 85.34493903 69.28862192 83.18359375 66.50390625 C79.65067575 65.32626692 76.43827531 65.34990205 72.76171875 65.328125 C71.24477851 65.30487945 69.72785146 65.28076038 68.2109375 65.25585938 C65.84187608 65.22115585 63.47328523 65.19163503 61.10400391 65.17797852 C47.43423677 65.08395366 35.776462 63.09751516 23.18359375 57.50390625 C23.18359375 56.84390625 23.18359375 56.18390625 23.18359375 55.50390625 C25.30078125 53.55859375 25.30078125 53.55859375 28.05859375 51.37890625 C28.96351563 50.65445313 29.8684375 49.93 30.80078125 49.18359375 C33.18359375 47.50390625 33.18359375 47.50390625 35.18359375 47.50390625 C34.2090625 46.34761719 34.2090625 46.34761719 33.21484375 45.16796875 C32.37953125 44.16507813 31.54421875 43.1621875 30.68359375 42.12890625 C29.84828125 41.13117188 29.01296875 40.1334375 28.15234375 39.10546875 C26.18359375 36.50390625 26.18359375 36.50390625 26.18359375 34.50390625 C25.19101562 35.27734375 24.1984375 36.05078125 23.17578125 36.84765625 C2.07910574 53.10444465 -19.17455861 63.03344679 -46.01464844 64.59472656 C-49.78425873 64.87674598 -52.17783466 65.07524913 -55.359375 67.2109375 C-57.13991707 70.01302382 -57.40915502 71.95163036 -57.56640625 75.25390625 C-57.65148437 76.73117188 -57.65148437 76.73117188 -57.73828125 78.23828125 C-57.7640625 78.9859375 -57.78984375 79.73359375 -57.81640625 80.50390625 C-60.45640625 80.83390625 -63.09640625 81.16390625 -65.81640625 81.50390625 C-66.47713261 58.01762542 -65.29472349 39.43830334 -49.31640625 21.00390625 C-36.07111264 7.21890628 -19.04745178 0.06208713 0 0 Z " fill="#676767" transform="translate(361.81640625,119.49609375)"/>
<path d="M0 0 C1.27922927 1.07340623 2.55013137 2.15681479 3.8125 3.25 C4.60527344 3.84683594 5.39804688 4.44367187 6.21484375 5.05859375 C15.93504199 13.25864069 22.35794315 24.51012742 26.8125 36.25 C27.245625 37.36117187 27.67875 38.47234375 28.125 39.6171875 C34.65578831 59.61772671 32.0564283 81.98347413 23 100.625 C18.77632191 108.8801468 13.62131356 115.91621995 6.8125 122.25 C5.82056641 123.24966797 5.82056641 123.24966797 4.80859375 124.26953125 C-12.07577368 140.59757686 -32.85098127 144.79710753 -55.640625 144.51953125 C-72.93778857 144.02048006 -89.18371204 136.51101226 -102.1875 125.25 C-103.37666016 124.35474609 -103.37666016 124.35474609 -104.58984375 123.44140625 C-114.31004199 115.24135931 -120.73294315 103.98987258 -125.1875 92.25 C-125.620625 91.13882813 -126.05375 90.02765625 -126.5 88.8828125 C-133.03099719 68.8816336 -130.43072972 46.5172456 -121.375 27.875 C-118.26497734 21.78995216 -114.68877268 16.40876195 -110.1875 11.25 C-109.02927734 9.79787109 -109.02927734 9.79787109 -107.84765625 8.31640625 C-99.83367411 -1.28413081 -88.67753866 -7.32843272 -77.1875 -11.75 C-76.07503906 -12.18441406 -74.96257812 -12.61882813 -73.81640625 -13.06640625 C-49.10163881 -21.1176415 -20.46360477 -15.78039174 0 0 Z M-98.88671875 23.10546875 C-110.79132821 37.7596993 -114.62895918 54.81437462 -112.90625 73.26171875 C-110.30827114 90.37340644 -101.46963404 105.83505491 -87.58984375 116.1875 C-72.4187496 126.31611537 -54.81795737 131.36032763 -36.66992188 127.74902344 C-19.89482002 123.39718266 -4.48057077 114.27822301 4.8125 99.25 C13.6381323 83.86058087 18.00159011 67.39742426 13.89453125 49.796875 C9.35311274 33.23530659 -0.10575044 19.17197738 -14.57421875 9.7109375 C-43.85417139 -6.65782526 -76.25409249 -1.60831855 -98.88671875 23.10546875 Z " fill="#010000" transform="translate(185.1875,23.75)"/>
<path d="M0 0 C73.92 0 147.84 0 224 0 C224 10.56 224 21.12 224 32 C150.08 32 76.16 32 0 32 C0 21.44 0 10.88 0 0 Z " fill="#B4B4B4" transform="translate(24,456)"/>
<path d="M0 0 C0.76981201 0.02618408 1.53962402 0.05236816 2.33276367 0.0793457 C3.17387695 0.09545898 4.01499023 0.11157227 4.8815918 0.12817383 C6.17806641 0.19101563 6.17806641 0.19101563 7.50073242 0.25512695 C8.38438477 0.27768555 9.26803711 0.30024414 10.1784668 0.32348633 C12.34912152 0.38215267 14.51889933 0.47182716 16.68823242 0.56762695 C16.69187805 1.61918976 16.69552368 2.67075256 16.69927979 3.75418091 C16.73624421 13.6711778 16.7940328 23.5878646 16.87213516 33.50462532 C16.91161998 38.60278727 16.94380359 43.70077624 16.95922852 48.79907227 C16.9743884 53.72057492 17.00882226 58.64160203 17.05654144 63.56289291 C17.0713621 65.43908425 17.07927383 67.31534348 17.08011627 69.19159317 C17.08248563 71.8228227 17.10956198 74.45273771 17.14233398 77.08374023 C17.13730362 77.85698135 17.13227325 78.63022247 17.12709045 79.42689514 C17.22730241 84.63780782 18.29284624 87.62269159 21.68823242 91.56762695 C26.2770081 95.26518155 29.83218471 96.14879436 35.58493042 96.08660889 C36.36184837 96.09411014 37.13876631 96.10161139 37.93922722 96.10933995 C40.53275701 96.12957908 43.1254094 96.12152213 45.71899414 96.11352539 C47.58193322 96.12226247 49.44486479 96.13274873 51.30778503 96.14485168 C56.35898124 96.1727157 61.40993262 96.17611627 66.46119452 96.1751318 C71.74234343 96.17826054 77.02338203 96.20387796 82.30447388 96.22711182 C92.30220016 96.26767826 102.29986122 96.28801407 112.29765713 96.30108571 C123.68095143 96.31695354 135.06413467 96.35536829 146.44736457 96.395679 C169.86095316 96.4780868 193.27453081 96.53137369 216.68823242 96.56762695 C216.68823242 101.84762695 216.68823242 107.12762695 216.68823242 112.56762695 C142.76823242 112.56762695 68.84823242 112.56762695 -7.31176758 112.56762695 C-7.31176758 1.79531731 -7.31176758 1.79531731 0 0 Z " fill="#4EB4DB" transform="translate(31.311767578125,199.432373046875)"/>
<path d="M0 0 C52.8 0 105.6 0 160 0 C160 10.56 160 21.12 160 32 C107.2 32 54.4 32 0 32 C0 21.44 0 10.88 0 0 Z " fill="#2862BE" transform="translate(296,456)"/>
<path d="M0 0 C52.8 0 105.6 0 160 0 C160 10.56 160 21.12 160 32 C107.2 32 54.4 32 0 32 C0 21.44 0 10.88 0 0 Z " fill="#686868" transform="translate(56,408)"/>
<path d="M0 0 C1.08767418 0.00071251 2.17534836 0.00142502 3.29598236 0.00215912 C4.54933884 -0.00904968 5.80269531 -0.02025848 7.09403229 -0.03180695 C8.47527777 -0.01889698 9.85651862 -0.0054829 11.23775482 0.0083847 C12.69834792 0.0048822 14.15893721 -0.00077785 15.61951447 -0.00843048 C19.58042538 -0.02266988 23.54064137 -0.00562584 27.50148582 0.01785469 C31.64847672 0.0379732 35.79543904 0.03208362 39.94246674 0.02974701 C46.90640971 0.02980057 53.87008126 0.04955095 60.83394623 0.08162689 C68.88256461 0.11851931 76.93082747 0.12730235 84.97951937 0.12032938 C92.72537056 0.1140218 100.47109996 0.12478336 108.21692657 0.14429474 C111.51187629 0.15246464 114.80676372 0.15517904 118.10172272 0.1536026 C121.98257478 0.15272296 125.86308955 0.16696096 129.74385262 0.19282913 C131.16724067 0.19998473 132.59066463 0.20207746 134.0140667 0.1987114 C135.95856616 0.19499049 137.90307273 0.21160214 139.84749603 0.2292099 C141.4790073 0.23480297 141.4790073 0.23480297 143.14347839 0.24050903 C146.48199496 0.67729364 148.37524753 1.63817667 151.0717392 3.62361908 C155.39737338 12.27488745 152.0717392 22.95120699 152.0717392 32.62361908 C99.2717392 32.62361908 46.4717392 32.62361908 -7.9282608 32.62361908 C-7.9282608 1.68844752 -7.9282608 1.68844752 0 0 Z " fill="#5DD2F1" transform="translate(303.92826080322266,407.37638092041016)"/>
<path d="M0 0 C73.92 0 147.84 0 224 0 C224 11.55555556 224 11.55555556 221 15 C217.17100238 16.27633254 213.56968428 16.1446718 209.57984924 16.14044189 C208.27554275 16.14489858 208.27554275 16.14489858 206.94488662 16.1494453 C204.0199701 16.1581437 201.09509446 16.1596415 198.17016602 16.16113281 C196.07771721 16.1657601 193.98526924 16.17078463 191.89282227 16.17617798 C186.20076443 16.1893107 180.50871839 16.19574838 174.81664777 16.20018864 C171.26321519 16.20311733 167.70978585 16.2072217 164.1563549 16.21169281 C153.04621729 16.22536865 141.93608707 16.23503547 130.82594162 16.2388947 C117.98600018 16.24337894 105.146165 16.2609435 92.30625588 16.2898953 C82.39028915 16.31148089 72.4743524 16.32159727 62.55836242 16.32293582 C56.63151877 16.32398588 50.704775 16.32993665 44.77795601 16.34775543 C39.20560334 16.36418267 33.63342623 16.36641771 28.06105804 16.35761642 C26.01317056 16.35684323 23.96527384 16.36122565 21.9174099 16.37107468 C19.12710644 16.38371006 16.33743271 16.37796342 13.5471344 16.36749268 C12.32452301 16.37957728 12.32452301 16.37957728 11.07721239 16.39190602 C7.8169329 16.36318609 5.42537429 16.22983162 2.5283041 14.66453171 C-1.44500425 10.33705674 0 6.1219791 0 0 Z " fill="#676767" transform="translate(24,328)"/>
<path d="M0 0 C0 32.01 0 64.02 0 97 C-43 97 -43 97 -47 94 C-49.47166165 86.58501504 -49.9798503 77.57183685 -48 70 C-44.785567 64.74162611 -39.69684713 61.17850703 -34.86328125 57.48632812 C-19.61886194 45.32594752 -11.49528828 22.21754439 -9.26171875 3.5703125 C-9.17535156 2.72210938 -9.08898437 1.87390625 -9 1 C-5.846632 0.29925156 -3.27275026 0 0 0 Z " fill="#676767" transform="translate(456,247)"/>
<path d="M0 0 C2.97 0.33 5.94 0.66 9 1 C9.22042969 2.68802734 9.22042969 2.68802734 9.4453125 4.41015625 C12.787917 28.02053447 23.38256957 47.75743256 41 64 C41.58813477 64.39501709 42.17626953 64.79003418 42.78222656 65.19702148 C45.71401952 67.2947186 47.68809485 68.79004249 48.6105957 72.36865234 C48.79770478 75.1315188 48.7593424 77.79696574 48.625 80.5625 C48.61855469 81.49513672 48.61210937 82.42777344 48.60546875 83.38867188 C48.48686805 88.28269472 48.33403103 92.13663229 45 96 C30.76623732 100.74458756 15.00370325 97 0 97 C0 64.99 0 32.98 0 0 Z " fill="#676767" transform="translate(296,247)"/>
<path d="M0 0 C5.28 0 10.56 0 16 0 C16 3.3 16 6.6 16 10 C16.825 10.144375 17.65 10.28875 18.5 10.4375 C24.20598817 12.98481615 28.399122 17.86410291 31.234375 23.41796875 C32 26 32 26 32 32 C26.72 32 21.44 32 16 32 C15.01 30.02 14.02 28.04 13 26 C10.36713522 24.69167705 7.9021634 24.65547758 5 25 C2.3530128 26.39685006 2.3530128 26.39685006 1 29 C0.42418767 32.45487399 0.54372187 34.21780892 2.3125 37.25 C5.86217145 39.56141397 9.17789532 39.8751547 13.3203125 40.5234375 C20.19786612 41.74655928 24.67554006 45.75823038 29 51 C32.80952686 57.39017408 33.18229523 64.31543399 31.37890625 71.4609375 C29.10671267 77.37873945 25.28475018 81.53188269 20 85 C18.02 85.495 18.02 85.495 16 86 C16 89.3 16 92.6 16 96 C10.72 96 5.44 96 0 96 C0 92.7 0 89.4 0 86 C-1.32 85.67 -2.64 85.34 -4 85 C-9.54543571 81.26332945 -14.14045204 76.54511946 -16 70 C-16 68.02 -16 66.04 -16 64 C-10.72 64 -5.44 64 0 64 C0.99 65.98 1.98 67.96 3 70 C6.43495572 70.99925985 8.86493674 71.2090906 12.375 70.5625 C14.71714477 68.31043772 14.75238274 66.12056826 15.1171875 62.97265625 C15.14705795 60.67417282 15.14705795 60.67417282 13 58 C9.86601904 57.11879551 9.86601904 57.11879551 6.25 56.5625 C-3.20450793 54.67352594 -8.3253754 50.651011 -14 43 C-16.93068938 37.26604251 -17.05105169 29.98553156 -15.41796875 23.79296875 C-12.89634449 17.95523587 -8.17072427 13.58046469 -3 10 C-2.01 10 -1.02 10 0 10 C0 6.7 0 3.4 0 0 Z " fill="#020100" transform="translate(128,40)"/>
<path d="M0 0 C0.19826372 4.75032241 0.34314101 9.49822432 0.43945312 14.25170898 C0.4796058 15.86704458 0.53414477 17.48209078 0.60351562 19.09643555 C1.16807276 32.57523718 1.16807276 32.57523718 -1.71533203 36.09228516 C-3.77449604 37.34755154 -5.75867885 38.13375085 -8 39 C-12.49202403 43.05796801 -14.80882582 47.55434271 -15.2784729 53.56245422 C-15.30184281 54.95076576 -15.31463132 56.33928139 -15.31884766 57.7277832 C-15.32889328 58.48929184 -15.3389389 59.25080048 -15.34928894 60.03538513 C-15.38006237 62.54050983 -15.39713966 65.04552794 -15.4140625 67.55078125 C-15.43277886 69.29242364 -15.45235263 71.034057 -15.4727478 72.77568054 C-15.52402558 77.35078609 -15.56367458 81.92592101 -15.60089111 86.50115967 C-15.64095807 91.17337284 -15.69203814 95.84546422 -15.7421875 100.51757812 C-15.83889531 109.67830828 -15.92229824 118.8390889 -16 128 C-21.28 128 -26.56 128 -32 128 C-32.09285522 114.87361981 -32.16384396 101.74731831 -32.20724869 88.62067604 C-32.22808529 82.52483101 -32.25633154 76.42921141 -32.30175781 70.33349609 C-32.34535506 64.44608736 -32.36916663 58.55889489 -32.37950897 52.67133713 C-32.38687541 50.42995171 -32.40126018 48.18857756 -32.42292023 45.9472847 C-32.45213816 42.79744533 -32.45594826 39.64848916 -32.45410156 36.49853516 C-32.46848267 35.58071259 -32.48286377 34.66289001 -32.49768066 33.71725464 C-32.43216994 23.32840529 -28.5998404 15.66266308 -21.515625 8.203125 C-15.31172777 2.76989824 -8.21456876 -0.18254597 0 0 Z " fill="#F4B83F" transform="translate(296,360)"/>
<path d="M0 0 C10.60104233 1.32513029 17.66890908 4.10867287 25 12 C30.81119763 19.62535324 32.299835 26.60847982 32.22705078 36.04443359 C32.22734283 37.04017395 32.22763489 38.03591431 32.22793579 39.06182861 C32.22654663 42.34078804 32.21100473 45.61951795 32.1953125 48.8984375 C32.19158091 51.17672603 32.18873462 53.45501617 32.18673706 55.73330688 C32.17911217 61.72068741 32.15947341 67.70797042 32.1373291 73.6953125 C32.11684609 79.80858033 32.10773009 85.92186397 32.09765625 92.03515625 C32.07622652 104.02348027 32.0421043 116.01173201 32 128 C26.72 128 21.44 128 16 128 C15.9906543 125.67904297 15.98130859 123.35808594 15.97167969 120.96679688 C15.93784004 113.27926655 15.88225235 105.5920027 15.81609726 97.90468597 C15.77666858 93.24601376 15.74445757 88.58752926 15.72900391 83.92871094 C15.71380685 79.42862991 15.67930755 74.92906511 15.63169098 70.42921448 C15.61690853 68.7165629 15.60896079 67.0038376 15.60811615 65.29112244 C15.75699615 51.64340796 15.75699615 51.64340796 9.21875 39.9765625 C8.6515625 39.53054688 8.084375 39.08453125 7.5 38.625 C6.9328125 38.16351563 6.365625 37.70203125 5.78125 37.2265625 C3.70850734 35.73847614 3.70850734 35.73847614 0 34 C0 22.78 0 11.56 0 0 Z " fill="#F4B83F" transform="translate(456,360)"/>
<path d="M0 0 C7.92 0 15.84 0 24 0 C24.3403125 3.526875 24.3403125 3.526875 24.6875 7.125 C25.41413979 13.15798007 26.11759141 17.11626589 31 21 C35.62762806 22.9305335 39.87056951 23.29195962 44.82077026 23.2784729 C45.5895211 23.2842653 46.35827194 23.2900577 47.15031826 23.29602563 C49.71597784 23.31297682 52.281457 23.31589791 54.84716797 23.31884766 C56.69039854 23.3281492 58.53362492 23.33831821 60.37684631 23.34928894 C65.37425661 23.37657742 70.37163872 23.39173498 75.36910391 23.40471697 C80.59417545 23.4203525 85.8191895 23.4471414 91.04421997 23.4727478 C100.93567819 23.51952806 110.82714724 23.55627585 120.71865952 23.58942068 C131.98101412 23.62764735 143.24331098 23.67705611 154.5056169 23.72740483 C177.67036846 23.83071351 200.83515712 23.91997741 224 24 C224 26.64 224 29.28 224 32 C150.08 32 76.16 32 0 32 C0 21.44 0 10.88 0 0 Z " fill="#939393" transform="translate(24,456)"/>
<path d="M0 0 C47.52 0 95.04 0 144 0 C144 5.28 144 10.56 144 16 C127.04063362 16.06949936 110.08132427 16.12301068 93.12184811 16.15543652 C85.24695418 16.17089376 77.37215047 16.19196136 69.49731445 16.22631836 C62.63218787 16.25625579 55.76712664 16.27558331 48.90193659 16.28226548 C45.26813418 16.28617041 41.63451869 16.2953235 38.00077629 16.31719017 C33.9404566 16.34142479 29.88046018 16.34196721 25.82006836 16.34057617 C24.62028854 16.351362 23.42050873 16.36214783 22.18437195 16.3732605 C14.30661964 16.34404162 9.01752811 15.88633123 3.125 10.25 C1 7 1 7 0 0 Z " fill="#929292" transform="translate(72,408)"/>
<path d="M0 0 C44.88 0 89.76 0 136 0 C136 5.28 136 10.56 136 16 C120.08370647 16.06951035 104.16746685 16.12301629 88.25105953 16.15543652 C80.86043562 16.17089134 73.46990788 16.19195425 66.0793457 16.22631836 C59.63612078 16.25626327 53.19296553 16.27558507 46.74967295 16.28226548 C43.33943051 16.28616916 39.92938735 16.29531414 36.51920891 16.31719017 C32.70791685 16.33896651 28.89703762 16.34196674 25.08569336 16.34057617 C23.3982325 16.35675491 23.3982325 16.35675491 21.67668152 16.3732605 C14.00913608 16.34298862 8.8599291 15.73558436 3.125 10.25 C1 7 1 7 0 0 Z " fill="#3178E9" transform="translate(320,456)"/>
<path d="M0 0 C65.34 0 130.68 0 198 0 C198 2.64 198 5.28 198 8 C173.7391446 8.07008334 149.47830437 8.12298491 125.21736813 8.15543652 C113.95257623 8.1709049 102.68784723 8.19199395 91.4230957 8.22631836 C81.6046574 8.2562215 71.78626465 8.27557521 61.96778208 8.28226548 C56.76904668 8.28617617 51.5704416 8.29536638 46.37174797 8.31719017 C41.47739139 8.33756968 36.58321868 8.3438308 31.6888237 8.33932304 C29.89375242 8.34014758 28.09867492 8.34610448 26.30364037 8.35761642 C23.8492105 8.37258358 21.39547125 8.36893842 18.94102478 8.36076355 C18.23380734 8.36950207 17.5265899 8.3782406 16.79794163 8.38724393 C11.89802041 8.34325397 8.28886409 7.35943547 4 5 C2.68 3.35 1.36 1.7 0 0 Z " fill="#929292" transform="translate(50,328)"/>
<path d="M0 0 C3.09375 1.423125 3.09375 1.423125 6.25 2.875 C21.73409114 9.63903655 38.21110834 10.06832847 54 4 C57.3 2.68 60.6 1.36 64 0 C64 8.25 64 16.5 64 25 C42.88 25 21.76 25 0 25 C0 16.75 0 8.5 0 0 Z " fill="#F4B83F" transform="translate(344,367)"/>
<path d="M0 0 C0.01417969 1.03898437 0.02835937 2.07796875 0.04296875 3.1484375 C0.29751652 11.98654803 1.35304228 18.29170189 6 26 C6.495 27.485 6.495 27.485 7 29 C-5.40714674 34.9163709 -17.43649988 37.45619499 -30.83203125 32.8671875 C-33.64881558 31.74047377 -36.34501587 30.46722807 -39 29 C-38.02626679 27.03070099 -37.04576245 25.0809909 -35.96484375 23.16796875 C-32.28083809 16.06610233 -32.20685198 8.85003282 -32 1 C-31.33355469 1.0721875 -30.66710937 1.144375 -29.98046875 1.21875 C-19.428173 2.2813588 -10.1314152 0 0 0 Z " fill="#EDB59E" transform="translate(392,325)"/>
<path d="M0 0 C10.56 0 21.12 0 32 0 C32 10.56 32 21.12 32 32 C21.44 32 10.88 32 0 32 C0 21.44 0 10.88 0 0 Z " fill="#2A2A2A" transform="translate(120,360)"/>
<path d="M0 0 C0.66 0.33 1.32 0.66 2 1 C1.02503067 1.80027115 0.05006134 2.6005423 -0.95445251 3.42506409 C-4.21260692 6.70827722 -4.70749795 9.09743545 -4.77984619 13.63412476 C-4.76298767 14.48052521 -4.74612915 15.32692566 -4.72875977 16.19897461 C-4.7344548 17.10544235 -4.74014984 18.0119101 -4.74601746 18.94584656 C-4.75710075 21.93214647 -4.72509024 24.91623954 -4.69140625 27.90234375 C-4.68782752 29.98449954 -4.68647207 32.06666024 -4.6872406 34.14881897 C-4.68255277 38.50927124 -4.65774089 42.86898226 -4.61743164 47.22924805 C-4.56649364 52.80894153 -4.55498819 58.38782031 -4.55726719 63.96771908 C-4.55644995 68.26668527 -4.53997174 72.56547457 -4.51826286 76.86438179 C-4.50873884 78.92119573 -4.50280908 80.97802964 -4.50058174 83.03486443 C-4.49405033 85.91413094 -4.4677317 88.7925481 -4.43579102 91.67163086 C-4.43715057 92.51600708 -4.43851013 93.3603833 -4.43991089 94.23034668 C-4.35408292 99.54225708 -3.50326265 103.28697246 -1 108 C-0.278125 108.598125 0.44375 109.19625 1.1875 109.8125 C4.21833264 113.47040146 3.24300325 117.38293822 3 122 C-2.28 122 -7.56 122 -13 122 C-13.09285522 108.87361981 -13.16384396 95.74731831 -13.20724869 82.62067604 C-13.22808529 76.52483101 -13.25633154 70.42921141 -13.30175781 64.33349609 C-13.34535506 58.44608736 -13.36916663 52.55889489 -13.37950897 46.67133713 C-13.38687541 44.42995171 -13.40126018 42.18857756 -13.42292023 39.9472847 C-13.45213816 36.79744533 -13.45594826 33.64848916 -13.45410156 30.49853516 C-13.46848267 29.58071259 -13.48286377 28.66289001 -13.49768066 27.71725464 C-13.44000409 18.57076351 -10.68092373 10.99506854 -4.25 4.375 C-3.45078125 3.53710938 -2.6515625 2.69921875 -1.828125 1.8359375 C-1.22484375 1.23007812 -0.6215625 0.62421875 0 0 Z " fill="#F2A83B" transform="translate(277,366)"/>
<path d="M0 0 C1.4754111 2.9508222 0.22528233 4.95681484 -0.69140625 7.96630859 C-7.12421257 29.27287455 -4.47062931 49.17839928 5.9375 68.8125 C16.1101616 85.62985758 32.21980388 95.87001769 51 101 C54.34098078 101.5638431 57.61368402 101.91417171 61 102 C61 102.33 61 102.66 61 103 C40.67215207 103.93724709 23.41877757 100.81907926 7.75 86.75 C-5.70863857 74.11688733 -12.60728785 57.77849633 -13.27099609 39.43847656 C-13.56544635 24.79910267 -8.77032697 13.14446985 -1 1 C-0.67 0.67 -0.34 0.34 0 0 Z " fill="#EDA43A" transform="translate(85,49)"/>
<path d="M0 0 C3.031875 0.103125 6.06375 0.20625 9.1875 0.3125 C9.1875 10.8725 9.1875 21.4325 9.1875 32.3125 C1.2675 32.3125 -6.6525 32.3125 -14.8125 32.3125 C-14.94737291 27.91564317 -15.04658579 23.5229172 -15.125 19.125 C-15.16689453 17.87912109 -15.20878906 16.63324219 -15.25195312 15.34960938 C-15.37331223 6.29621982 -15.37331223 6.29621982 -12.90625 1.96875 C-8.51970091 -0.37960456 -4.88343862 -0.23488064 0 0 Z " fill="#48A8CC" transform="translate(310.8125,407.6875)"/>
<path d="M0 0 C5.28 0 10.56 0 16 0 C16 10.56 16 21.12 16 32 C10.72 32 5.44 32 0 32 C0 21.44 0 10.88 0 0 Z " fill="#474747" transform="translate(424,360)"/>
<path d="M0 0 C5.28 0 10.56 0 16 0 C16 10.56 16 21.12 16 32 C10.72 32 5.44 32 0 32 C0 21.44 0 10.88 0 0 Z " fill="#474747" transform="translate(312,360)"/>
<path d="M0 0 C5.28 0 10.56 0 16 0 C16 7.92 16 15.84 16 24 C5 24 5 24 1.83203125 22.11328125 C-0.74780719 17.72920611 -0.55408857 14.17165809 -0.3125 9.1875 C-0.28994141 8.30384766 -0.26738281 7.42019531 -0.24414062 6.50976562 C-0.18547428 4.3391109 -0.09579979 2.1693331 0 0 Z " fill="#464646" transform="translate(136,360)"/>
<path d="M0 0 C5.28 0 10.56 0 16 0 C16 2.64 16 5.28 16 8 C10.72 8 5.44 8 0 8 C0 5.36 0 2.72 0 0 Z " fill="#F4A93C" transform="translate(472,480)"/>
</svg>
